<?xml version="1.0" standalone="no"?>
<!DOCTYPE svg PUBLIC "-//W3C//DTD SVG 20010904//EN"
 "http://www.w3.org/TR/2001/REC-SVG-20010904/DTD/svg10.dtd">
<svg version="1.0" xmlns="http://www.w3.org/2000/svg"
 width="134.000000pt" height="134.000000pt" viewBox="0 0 134.000000 134.000000"
 preserveAspectRatio="xMidYMid meet">
<metadata>
Created by potrace 1.11, written by Peter Selinger 2001-2013
</metadata>
<g transform="translate(0.000000,134.000000) scale(0.100000,-0.100000)"
fill="#000000" stroke="none">
<path d="M607 1203 c-61 -130 -147 -313 -179 -383 -11 -25 -38 -82 -59 -127
l-37 -82 130 -76 c97 -56 134 -73 143 -65 7 6 22 33 34 60 12 28 25 50 29 50
5 0 21 -27 37 -60 16 -34 34 -59 40 -58 5 2 65 35 133 73 106 61 121 73 117
92 -3 12 -28 70 -56 130 -28 59 -73 158 -101 218 -64 141 -157 328 -167 338
-4 4 -33 -45 -64 -110z"/>
<path d="M185 303 c-67 -143 -99 -223 -102 -255 l-5 -46 148 1 149 2 20 40
c12 22 28 54 38 72 l17 31 109 -73 109 -73 111 74 111 74 37 -75 37 -76 145 3
146 3 1 35 c1 25 -26 92 -91 232 -51 108 -96 206 -100 217 -3 12 -11 21 -17
21 -6 0 -81 -41 -166 -90 -85 -50 -158 -90 -162 -90 -4 0 -13 -7 -20 -15 -7
-8 -18 -15 -26 -15 -7 0 -94 47 -193 105 -99 58 -183 105 -188 105 -5 0 -54
-93 -108 -207z"/>
</g>
</svg>
